HIERARCHY
ROOT Hips
{
	OFFSET 0.00000 0.00000 0.00000
	CHANNELS 6 Xposition Yposition Zposition Zrotation Yrotation Xrotation 
	JOINT LHipJoint
	{
		OFFSET 0 0 0
		CHANNELS 3 Zrotation Yrotation Xrotation
		JOINT LeftHip
		{
			OFFSET 1.28858 -1.83292 1.03970
			CHANNELS 3 Zrotation Yrotation Xrotation
			JOINT LeftKnee
			{
				OFFSET 2.47846 -6.80952 0.00000
				CHANNELS 3 Zrotation Yrotation Xrotation
				JOINT LeftAnkle
				{
					OFFSET 2.75274 -7.56311 0.00000
					CHANNELS 3 Zrotation Yrotation Xrotation
					JOINT LeftToe
					{
						OFFSET 0.12848 -0.35301 1.68223
						CHANNELS 3 Zrotation Yrotation Xrotation
						End Site
						{
							OFFSET 0.00000 -0.00000 0.87311
						}
					}
				}
			}
		}
	}
	JOINT RHipJoint
	{
		OFFSET 0 0 0
		CHANNELS 3 Zrotation Yrotation Xrotation
		JOINT RightHip
		{
			OFFSET -1.31183 -1.83292 1.03970
			CHANNELS 3 Zrotation Yrotation Xrotation
			JOINT RightKnee
			{
				OFFSET -2.44740 -6.72417 0.00000
				CHANNELS 3 Zrotation Yrotation Xrotation
				JOINT RightAnkle
				{
					OFFSET -2.67343 -7.34519 0.00000
					CHANNELS 3 Zrotation Yrotation Xrotation
					JOINT RightToe
					{
						OFFSET -0.16914 -0.46471 1.77626
						CHANNELS 3 Zrotation Yrotation Xrotation
						End Site
						{
							OFFSET -0.00000 -0.00000 0.92777
						}
					}
				}
			}
		}
	}
	JOINT lowerback
	{
		OFFSET 0 0 0
		CHANNELS 3 Zrotation Yrotation Xrotation
		JOINT Chest
		{
			OFFSET 0.01249 2.14252 0.03842
			CHANNELS 3 Zrotation Yrotation Xrotation
			JOINT Chest2
			{
				OFFSET -0.02957 2.14199 -0.03751
				CHANNELS 3 Zrotation Yrotation Xrotation
				JOINT lowerneck
				{
					OFFSET 0 0 0
					CHANNELS 3 Zrotation Yrotation Xrotation
					JOINT Neck
					{
						OFFSET -0.01678 1.65709 -0.05476
						CHANNELS 3 Zrotation Yrotation Xrotation
						JOINT Head
						{
							OFFSET 0.07912 1.58331 -0.11843
							CHANNELS 3 Zrotation Yrotation Xrotation
							End Site
							{
								OFFSET 0.03298 1.73940 -0.04271
							}
						}
					}
				}
				JOINT LeftCollar
				{
					OFFSET 0 0 0
					CHANNELS 3 Zrotation Yrotation Xrotation
					JOINT LeftShoulder
					{
						OFFSET 3.39556 1.16496 0.08673
CHANNELS 3 Zrotation Xrotation Yrotation
						JOINT LeftElbow
						{
OFFSET 0 -5.239100 -0.000000
CHANNELS 3 Zrotation Xrotation Yrotation
							JOINT LeftWrist
							{
OFFSET 0 -3.314670 0.000000
CHANNELS 3 Zrotation Xrotation Yrotation
								JOINT lhand
								{
									OFFSET 0 0 0
CHANNELS 3 Zrotation Xrotation Yrotation
									JOINT LFingers
									{
OFFSET 0 -0.965900 0.000000
CHANNELS 3 Zrotation Xrotation Yrotation
										End Site
										{
OFFSET 0 -0.778730 0.000000
										}
									}
								}
								JOINT LThumb
								{
OFFSET 0 0.000000 0.000000
CHANNELS 3 Zrotation Xrotation Yrotation
									End Site
									{
OFFSET 0 -0.790620 0.790620
									}
								}
							}
						}
					}
				}
				JOINT RightCollar
				{
					OFFSET 0 0 0
					CHANNELS 3 Zrotation Yrotation Xrotation
					JOINT RightShoulder
					{
						OFFSET -3.27193 1.31331 0.33940
CHANNELS 3 Zrotation Xrotation Yrotation
						JOINT RightElbow
						{
OFFSET 0 -5.302520 0.000000
CHANNELS 3 Zrotation Xrotation Yrotation
							JOINT RightWrist
							{
OFFSET 0 -3.678750 0.000000
CHANNELS 3 Zrotation Xrotation Yrotation
								JOINT rhand
								{
									OFFSET 0 0 0
CHANNELS 3 Zrotation Xrotation Yrotation
									JOINT RFingers
									{
OFFSET 0 -0.594810 0.000000
CHANNELS 3 Zrotation Xrotation Yrotation
										End Site
										{
OFFSET 0 -0.479550 0.000000
										}
									}
								}
								JOINT RThumb
								{
OFFSET 0 0.000000 0.000000
CHANNELS 3 Zrotation Xrotation Yrotation
									End Site
									{
OFFSET 0 -0.486870 0.486870
									}
								}
							}
						}
					}
				}
			}
		}
	}
}
MOTION
Frames: 4
Frame Time: 0.008333333333333333
8.287582 18.238773 -31.633958 -1.366286 25.849077 2.685896 0.000000 0.000000 0.000000 -15.202818 0.761257 4.590897 0.017775 0.861188 2.366967 1.192285 -4.172546 -19.679022 2.583656 9.988428 28.939278 0.000000 0.000000 0.000000 14.940253 5.384637 1.605215 0.000000 -0.037646 0.103440 -0.819294 -22.717392 -36.755055 -1.440538 -7.587764 21.468817 0.427994 1.075580 -3.539169 -0.661083 1.433975 -3.179497 -0.883180 0.709367 -1.250231 -0.853043 -4.803235 -0.426802 4.650107 -6.653053 6.127443 1.477404 -3.220709 2.209813 0.000000 0.000000 0.000000 8.457294 1.946216 -44.556795 10.097515 -16.891895 1.503115 12.309279 -13.839682 11.743959 0.000000 0.000000 0.000000 -7.125000 0.000000 0.000000 -10.374927 18.080089 -6.754685 0.000000 0.000000 0.000000 -4.303581 10.373257 26.695275 -13.310586 -21.740558 -2.567201 -8.338429 8.111362 40.763866 0.000000 0.000000 0.000000 7.125000 0.000000 0.000000 37.929530 67.373831 -21.642186
8.286000 18.238085 -31.631952 -1.357358 25.884751 2.681470 0.000000 0.000000 0.000000 -15.171510 0.821840 4.564832 0.018072 0.868276 2.386497 1.184231 -4.295530 -19.594256 2.679692 10.157554 29.488424 0.000000 0.000000 0.000000 14.929990 5.339951 1.600319 -0.000100 -0.046801 0.128485 -0.855726 -22.609402 -36.823381 -1.506921 -7.752915 21.966238 0.375249 1.038414 -3.662689 -0.620293 1.385560 -3.091388 -0.809363 0.687057 -1.093833 -0.792074 -4.857510 -0.231832 4.453531 -6.698516 5.723857 1.410491 -3.256142 2.032867 0.000000 0.000000 0.000000 8.388504 1.805378 -44.435698 10.099552 -16.895127 1.503726 12.214943 -13.818711 11.726346 0.000000 0.000000 0.000000 -7.125000 0.000000 0.000000 -10.441055 18.103155 -6.793727 0.000000 0.000000 0.000000 -4.411284 10.280854 26.890281 -13.332741 -21.772819 -2.575393 -8.484357 8.128931 40.514699 0.000000 0.000000 0.000000 7.125000 0.000000 0.000000 37.380133 67.228323 -21.173458
8.284391 18.237546 -31.630849 -1.289190 25.905183 2.706268 0.000000 0.000000 0.000000 -15.249451 0.735869 4.567133 0.018592 0.881051 2.421625 1.191861 -4.318288 -19.656702 2.756986 10.290683 29.923418 0.000000 0.000000 0.000000 14.868703 5.354232 1.625077 -0.000027 -0.040137 0.110232 -0.856331 -22.630890 -36.851042 -1.533167 -7.817187 22.160311 0.316448 1.024329 -3.549237 -0.645553 1.368201 -3.143688 -0.805770 0.678648 -1.211997 -0.768314 -4.853511 -0.309711 4.403530 -6.696021 5.834579 1.387782 -3.252661 2.079502 0.000000 0.000000 0.000000 8.466123 1.869915 -44.615314 10.124161 -16.933508 1.510903 12.210391 -13.979060 11.646998 0.000000 0.000000 0.000000 -7.125000 0.000000 0.000000 -10.446522 18.183005 -6.778692 0.000000 0.000000 0.000000 -4.429590 10.298434 27.078635 -13.276566 -21.691057 -2.554585 -8.768461 8.183890 40.200543 0.000000 0.000000 0.000000 7.125000 0.000000 0.000000 36.591773 67.072423 -20.551241
8.279885 18.238367 -31.628597 -1.305996 25.920088 2.672012 0.000000 0.000000 0.000000 -15.186486 0.731892 4.535141 0.019813 0.909189 2.498911 1.188945 -4.511419 -19.609394 2.810878 10.382080 30.223533 0.000000 0.000000 0.000000 14.949552 5.547423 1.797945 0.000000 -0.006921 0.019104 -0.860688 -22.741684 -36.999026 -1.499472 -7.734738 21.911206 0.203330 1.013222 -3.574189 -0.571900 1.356336 -3.093516 -0.666063 0.675625 -1.150837 -0.764346 -4.858071 -0.469551 4.320456 -6.707314 6.041995 1.355254 -3.254492 2.172717 0.000000 0.000000 0.000000 8.384701 1.764732 -44.595734 10.094548 -16.887382 1.502295 12.119172 -14.017467 11.788160 0.000000 0.000000 0.000000 -7.125000 0.000000 0.000000 -10.505748 18.046671 -6.850704 0.000000 0.000000 0.000000 -4.567351 10.171862 27.266321 -13.224734 -21.615662 -2.535471 -8.692032 8.030579 40.127541 0.000000 0.000000 0.000000 7.125000 0.000000 0.000000 36.556923 66.992999 -20.464894
